<svg display="none" xmlns="http://www.w3.org/2000/svg">
  <symbol id="header-logo--mobile">
    <path d="M.005 1.549c0-.336.13-.66.365-.9C.604.41.922.27 1.257.262H8.39c5.057 0 8.385 2.703 8.385 7.13v.06c0 4.846-4.033 7.358-8.802 7.358H2.538v6.801a1.28 1.28 0 01-.754 1.28 1.269 1.269 0 01-1.717-.758 1.28 1.28 0 01-.062-.522V1.549zm8.067 10.968c3.706 0 6.14-1.994 6.14-4.986v-.06c0-3.21-2.394-4.875-5.961-4.875H2.588v9.881l5.484.04zM21.593 1.389a1.282 1.282 0 01.755-1.28 1.268 1.268 0 011.717.758c.056.168.077.346.062.522v20.222a1.28 1.28 0 01-.754 1.28 1.27 1.27 0 01-1.717-.758 1.282 1.282 0 01-.063-.522V1.389zM30.674 1.419A1.278 1.278 0 0131.926.173h.348a1.535 1.535 0 011.281.737l13.6 17.4V1.36A1.239 1.239 0 0148.389.122c.327 0 .64.13.871.362.231.232.36.546.36.874v20.292a1.14 1.14 0 01-.703 1.092 1.13 1.13 0 01-.449.085h-.129a1.695 1.695 0 01-1.311-.778L33.117 4.24v17.41a1.258 1.258 0 01-1.191 1.247 1.238 1.238 0 01-1.212-1.247V1.42h-.04zM55.938 1.389a1.282 1.282 0 01.755-1.28 1.268 1.268 0 011.717.758c.056.168.077.346.062.522v12.295L71.228.55c.262-.271.618-.432.994-.448a1.27 1.27 0 011.222 1.256 1.29 1.29 0 01-.418.898l-7.947 7.897 8.573 10.53c.224.26.348.593.348.937a1.312 1.312 0 01-.838 1.191 1.228 1.228 0 01-1.497-.493L63.3 11.859l-4.828 4.846v4.886a1.27 1.27 0 01-.78 1.17 1.259 1.259 0 01-1.648-.685 1.27 1.27 0 01-.096-.485V1.389h-.01z"/>
  </symbol>
  <symbol id="header-logo--tablet">
    <path fill-rule="evenodd" clip-rule="evenodd" d="M53.892 6.586l5.038 21.145a1.418 1.418 0 01-.22 1.297 1.356 1.356 0 01-1.183.535H53.52c-.69 5.812-5.57 10.315-11.489 10.315-5.917 0-10.798-4.503-11.488-10.314h-1.965C27.887 35.442 22.953 40 16.968 40c-5.994 0-10.934-4.573-11.612-10.466H1.45a1.364 1.364 0 01-1.154-.536 1.418 1.418 0 01-.24-1.267L5.106 6.586C5.455 4.26 7.639 0 13.486 0c.388 0 .76.157 1.034.435.274.279.428.657.428 1.05 0 .395-.154.772-.428 1.051a1.45 1.45 0 01-1.034.435c-4.707 0-5.438 3.694-5.497 4.1L3.341 26.602h2.034c.746-5.817 5.652-10.31 11.593-10.31 5.939 0 10.843 4.488 11.593 10.3l1.998.01c.745-5.75 5.598-10.189 11.473-10.189 5.886 0 10.746 4.456 11.477 10.222v-.053h2.137l-4.639-19.51c-.068-.407-.77-4.1-5.497-4.1a1.45 1.45 0 01-1.033-.436 1.498 1.498 0 01-.428-1.05c0-.394.154-.772.428-1.05A1.45 1.45 0 0145.51 0c5.848 0 8.03 4.259 8.382 6.586zm-28.22 22.977a9.122 9.122 0 00-.022-2.97c-.725-4.195-4.336-7.383-8.681-7.383-4.349 0-7.961 3.192-8.683 7.391a9.114 9.114 0 00-.025 2.94c.66 4.273 4.308 7.541 8.707 7.541 4.392 0 8.034-3.257 8.704-7.518zm24.942 0c.073-.461.112-.934.112-1.417 0-4.868-3.893-8.815-8.694-8.815-4.802 0-8.695 3.947-8.695 8.815 0 .482.039.956.112 1.418.669 4.194 4.257 7.397 8.583 7.397 4.325 0 7.913-3.203 8.582-7.397z"/><path d="M71.005 18.549c0-.337.13-.66.365-.9.234-.24.552-.379.887-.387h7.133c5.057 0 8.385 2.703 8.385 7.13v.06c0 4.846-4.034 7.358-8.802 7.358h-5.435v6.801a1.282 1.282 0 01-.754 1.28 1.27 1.27 0 01-1.717-.758 1.282 1.282 0 01-.062-.522V18.549zm8.067 10.968c3.706 0 6.14-1.994 6.14-4.986v-.06c0-3.21-2.395-4.875-5.961-4.875h-5.663v9.881l5.484.04zM92.594 18.389a1.282 1.282 0 01.754-1.28 1.269 1.269 0 011.717.758c.056.168.077.346.062.522v20.222a1.282 1.282 0 01-.754 1.28 1.27 1.27 0 01-1.717-.758 1.282 1.282 0 01-.063-.522V18.389zM101.674 18.419a1.278 1.278 0 011.252-1.247h.347a1.535 1.535 0 011.282.738l13.601 17.4V18.36c0-.329.13-.643.361-.875a1.229 1.229 0 011.742 0c.231.232.361.546.361.874v20.292c.005.154-.021.308-.076.452a1.13 1.13 0 01-1.077.725h-.129a1.69 1.69 0 01-1.311-.778l-13.909-17.81v17.41a1.257 1.257 0 01-1.192 1.247 1.23 1.23 0 01-1.212-1.246V18.419h-.04zM126.938 18.389a1.284 1.284 0 01.755-1.28 1.267 1.267 0 011.45.306 1.287 1.287 0 01.329.974v12.295l12.756-13.133c.262-.271.617-.432.994-.448.325.012.633.15.86.383.227.234.357.546.362.873a1.28 1.28 0 01-.418.897l-7.948 7.898 8.574 10.53c.224.26.348.593.348.937a1.309 1.309 0 01-1.341 1.276 1.228 1.228 0 01-.994-.578l-8.365-10.46-4.828 4.846v4.886a1.278 1.278 0 01-.37.895 1.26 1.26 0 01-2.154-.895V18.389h-.01z" fill="#fff"/>
  </symbol>
  <symbol id="header-logo--desktop">
    <path d="M72.193 18.425c0-.333.133-.652.369-.89.237-.238.558-.376.897-.384h7.211c5.113 0 8.477 2.676 8.477 7.06v.06c0 4.798-4.078 7.286-8.899 7.286h-5.494v6.734a1.243 1.243 0 01-.332.965 1.286 1.286 0 01-.948.41 1.304 1.304 0 01-.949-.41 1.26 1.26 0 01-.332-.965V18.425zm8.156 10.861c3.746 0 6.207-1.975 6.207-4.937v-.059c0-3.18-2.42-4.828-6.026-4.828h-5.725v9.785l5.544.04zM94.019 18.267a1.243 1.243 0 01.332-.965 1.286 1.286 0 01.948-.41 1.304 1.304 0 01.948.41 1.258 1.258 0 01.333.965V38.29a1.245 1.245 0 01-.332.965 1.284 1.284 0 01-.949.41 1.305 1.305 0 01-.948-.41 1.26 1.26 0 01-.332-.965V18.267zM103.199 18.297a1.25 1.25 0 01.38-.868c.236-.23.553-.362.885-.367h.352c.261.005.516.075.743.203.226.127.416.31.552.528l13.751 17.23V18.237c0-.324.131-.636.364-.865a1.259 1.259 0 011.762 0c.233.23.364.54.364.865v20.094a1.117 1.117 0 01-.711 1.082 1.161 1.161 0 01-.454.083h-.13a1.739 1.739 0 01-.756-.23 1.709 1.709 0 01-.57-.54L105.67 21.09v17.24a1.238 1.238 0 01-.353.853c-.224.23-.529.366-.853.381a1.257 1.257 0 01-.871-.369 1.21 1.21 0 01-.354-.865V18.296h-.04zM128.74 18.267a1.243 1.243 0 01.332-.965 1.287 1.287 0 01.949-.41 1.304 1.304 0 01.948.41 1.242 1.242 0 01.332.965v12.175l12.897-13.005c.264-.269.624-.428 1.004-.444.329.013.64.149.87.38.23.232.361.54.366.864a1.262 1.262 0 01-.422.889l-8.035 7.82 8.667 10.427c.227.258.352.587.352.928a1.287 1.287 0 01-.847 1.18 1.261 1.261 0 01-1.083-.08 1.23 1.23 0 01-.43-.409l-8.457-10.357-4.882 4.798v4.839a1.238 1.238 0 01-.373.886 1.282 1.282 0 01-.902.368 1.288 1.288 0 01-.902-.368 1.244 1.244 0 01-.374-.886V18.267h-.01z"/><path class="page-header__logo-stars" fill="#d22856" d="M98.94 9.746a3.678 3.678 0 01-2.574-1.047 3.554 3.554 0 01-1.072-2.528c0 .948-.383 1.857-1.065 2.528a3.668 3.668 0 01-2.57 1.047c.965.002 1.89.381 2.57 1.053a3.554 3.554 0 011.065 2.53c.003-.949.388-1.86 1.071-2.53a3.688 3.688 0 012.575-1.053z"/><path d="M43.287 19.067h.733a2.47 2.47 0 00-.906-.887 2.523 2.523 0 00-1.233-.328c-.418 0-.826-.129-1.166-.368a1.978 1.978 0 01-.732-.965c-.724.206-1.427.477-2.1.81h.191c.533 0 1.044.208 1.42.578.377.37.589.873.589 1.397.005.095.005.19 0 .286a8.977 8.977 0 013.204-.523z"/><path d="M60.733 27.647l-5.192-21.08C55.179 4.245 52.929 0 46.903 0c-.4 0-.783.156-1.066.434a1.469 1.469 0 00-.44 1.047c0 .393.158.77.44 1.047a1.52 1.52 0 001.066.434c4.871 0 5.594 3.683 5.665 4.088l4.78 19.452H55.25a11.721 11.721 0 00-1.724-4.78 11.946 11.946 0 00-3.599-3.633 2.502 2.502 0 00-1.116.908c-.274.404-.42.878-.42 1.363.005.086.005.171 0 .257a9.148 9.148 0 012.922 3.207 8.974 8.974 0 011.095 4.169 9.042 9.042 0 01-.14 1.48 8.849 8.849 0 01-3.05 5.393 9.132 9.132 0 01-5.885 2.141 9.132 9.132 0 01-5.885-2.141 8.849 8.849 0 01-3.049-5.392 9.031 9.031 0 01-.14-1.481c.015-1.37.341-2.72.954-3.95a2.023 2.023 0 01-1.33-.625 1.957 1.957 0 01-.538-1.35.694.694 0 00-.191-.483 11.566 11.566 0 00-1.798 4.936h-1.868a11.782 11.782 0 00-3.933-7.54 12.17 12.17 0 00-8.05-3.03 12.17 12.17 0 00-8.05 3.03 11.782 11.782 0 00-3.932 7.54H3.443L8.233 7.05c.061-.405.814-4.088 5.666-4.088.4 0 .783-.156 1.065-.434.282-.277.441-.654.441-1.047 0-.393-.159-.77-.441-1.047A1.52 1.52 0 0013.899 0C7.872 0 5.623 4.246 5.26 6.566L.058 27.647a1.38 1.38 0 00.247 1.263c.14.176.322.316.529.41.207.092.433.135.66.124h4.018c.082.611.21 1.215.382 1.807a.731.731 0 00.1-.355c0-.524.212-1.026.589-1.397.376-.37.887-.578 1.42-.578.163.002.325.025.482.069a8.835 8.835 0 01-.07-1.037c.002-.496.046-.991.13-1.48a8.848 8.848 0 013.042-5.414 9.131 9.131 0 015.897-2.152c2.165 0 4.258.763 5.898 2.152a8.848 8.848 0 013.041 5.413c.085.49.128.985.131 1.481a8.87 8.87 0 01-2.665 6.267 9.18 9.18 0 01-6.374 2.62 9.146 9.146 0 01-5.454-1.708c-.363.31-.826.48-1.306.483a.76.76 0 00-.526.22.734.734 0 00-.217.521 1.946 1.946 0 01-.181.8 12.088 12.088 0 007.643 2.705 12.174 12.174 0 008.012-2.951 11.789 11.789 0 004-7.436h1.829a11.784 11.784 0 003.944 7.51A12.171 12.171 0 0043.292 40c2.964 0 5.823-1.073 8.033-3.015a11.784 11.784 0 003.944-7.511h4.018c.232.016.465-.024.678-.117.212-.093.398-.236.541-.417a1.38 1.38 0 00.227-1.293z"/><path class="page-header__logo-stars" fill="#d22856" d="M50.92 15.917a4.576 4.576 0 01-1.729-.335 4.515 4.515 0 01-1.466-.96 4.431 4.431 0 01-.98-1.44 4.37 4.37 0 01-.344-1.699 4.406 4.406 0 01-1.328 3.136 4.56 4.56 0 01-3.192 1.298 4.57 4.57 0 013.193 1.304 4.416 4.416 0 011.327 3.14c0-1.18.476-2.31 1.323-3.143a4.56 4.56 0 013.196-1.301zM38.074 19.383a2.786 2.786 0 01-1.953-.796 2.692 2.692 0 01-.809-1.92c0 .719-.29 1.408-.805 1.917a2.786 2.786 0 01-1.947.799c.73 0 1.43.285 1.946.792.516.507.806 1.196.806 1.913a2.693 2.693 0 01.813-1.914 2.787 2.787 0 011.95-.791zM10.785 33.64a2.786 2.786 0 01-1.94-.802 2.692 2.692 0 01-.802-1.913c0 .719-.29 1.408-.805 1.917a2.786 2.786 0 01-1.947.799c.73.002 1.43.29 1.947.799.516.508.805 1.198.805 1.916 0-.717.288-1.404.802-1.913a2.786 2.786 0 011.94-.802z"/>
  </symbol>
  <symbol id="menu-open">
    <path d="M1.137 0c-.15-.003-.3.021-.439.07C.558.12.432.195.326.288A.98.98 0 00.08.614.877.877 0 000 1v2c0 .265.12.52.333.707.213.188.502.293.804.293h47.726c.15.003.3-.021.439-.07.14-.05.266-.123.372-.217a.98.98 0 00.246-.327A.877.877 0 0050 3V1c0-.265-.12-.52-.333-.707A1.22 1.22 0 0048.863 0H1.137zm0 10a1.25 1.25 0 00-.439.07c-.14.05-.266.123-.372.217a.98.98 0 00-.246.327A.877.877 0 000 11v2c0 .265.12.52.333.707.213.188.502.293.804.293h47.726c.15.003.3-.021.439-.07.14-.05.266-.123.372-.217a.98.98 0 00.246-.327A.877.877 0 0050 13v-2c0-.265-.12-.52-.333-.707a1.22 1.22 0 00-.804-.293H1.137zm0 10c-.15-.003-.3.021-.439.07-.14.05-.266.123-.372.217a.98.98 0 00-.246.327A.877.877 0 000 21v2c0 .265.12.52.333.707.213.187.502.293.804.293h47.726c.15.003.3-.021.439-.07.14-.05.266-.124.372-.217a.98.98 0 00.246-.327A.877.877 0 0050 23v-2c0-.265-.12-.52-.333-.707a1.22 1.22 0 00-.804-.293H1.137z"/>
  </symbol>
  <symbol id="menu-close">
    <path d="M20.8487 1.37761e-06L0 20.8487L2.15131 23L23 2.15131L20.8487 1.37761e-06Z"/>
    <path d="M2.15131 0L0 2.15131L20.8487 23L23 20.8487L2.15131 0Z"/>
  </symbol>
  <symbol id="footer-logo">
    <path d="M71 18.55a1.29 1.29 0 011.26-1.29h7.13c5.06 0 8.39 2.7 8.39 7.13v.06c0 4.85-4.04 7.36-8.8 7.36h-5.44v6.8A1.28 1.28 0 0172.27 40 1.27 1.27 0 0171 38.61V18.55zm8.07 10.97c3.7 0 6.14-2 6.14-4.99v-.06c0-3.2-2.4-4.87-5.96-4.87H73.6v9.88l5.48.04zM92.6 18.39A1.28 1.28 0 0193.85 17a1.27 1.27 0 011.27 1.39V38.6A1.28 1.28 0 0193.86 40a1.27 1.27 0 01-1.27-1.39V18.4zM101.67 18.42a1.28 1.28 0 011.26-1.25h.34a1.53 1.53 0 011.29.74l13.6 17.4V18.36a1.24 1.24 0 011.23-1.24 1.23 1.23 0 011.23 1.24v20.3a1.16 1.16 0 01-.32.83 1.13 1.13 0 01-.83.34h-.13a1.69 1.69 0 01-1.31-.78l-13.91-17.8v17.4a1.26 1.26 0 01-1.2 1.25 1.23 1.23 0 01-1.2-1.25V18.42h-.05zM126.94 18.39A1.28 1.28 0 01128.2 17a1.27 1.27 0 011.26 1.39v12.3l12.76-13.14c.26-.27.62-.43 1-.45a1.27 1.27 0 011.21 1.26 1.3 1.3 0 01-.41.9l-7.95 7.9 8.57 10.52c.23.26.35.6.35.94a1.33 1.33 0 01-.4.92 1.29 1.29 0 01-.94.36 1.23 1.23 0 01-1-.58l-8.36-10.46-4.83 4.85v4.88a1.28 1.28 0 01-.78 1.17 1.26 1.26 0 01-1.74-1.17V18.4h-.01z"/><path class="page-footer__logo-glasses" fill="#d22856" clip-rule="evenodd" d="M53.9 6.59l5.03 21.14a1.42 1.42 0 01-.75 1.72c-.2.09-.43.13-.65.11h-4.01a11.63 11.63 0 01-11.49 10.32c-5.92 0-10.8-4.5-11.49-10.32h-1.96A11.75 11.75 0 0116.97 40c-6 0-10.94-4.57-11.61-10.47H1.45A1.36 1.36 0 01.3 29a1.42 1.42 0 01-.24-1.27L5.1 6.6C5.46 4.26 7.64 0 13.5 0c.38 0 .76.16 1.03.44a1.5 1.5 0 010 2.1c-.27.27-.65.43-1.03.43-4.71 0-5.44 3.7-5.5 4.1L3.34 26.6h2.03a11.75 11.75 0 0111.6-10.3c5.94 0 10.84 4.48 11.6 10.3h1.99a11.63 11.63 0 0111.47-10.19c5.89 0 10.75 4.46 11.48 10.23v-.06h2.14L51 7.08c-.07-.41-.77-4.1-5.5-4.1-.39 0-.76-.17-1.03-.44a1.5 1.5 0 010-2.1c.27-.28.64-.44 1.03-.44 5.85 0 8.03 4.26 8.38 6.59zM25.66 29.56a9.12 9.12 0 00-.02-2.97 8.85 8.85 0 00-8.68-7.38 8.85 8.85 0 00-8.82 8.94 8.85 8.85 0 008.81 8.94c4.4 0 8.04-3.26 8.71-7.53zm24.94 0a8.75 8.75 0 00-8.58-10.23 8.75 8.75 0 00-8.58 10.23 8.73 8.73 0 008.58 7.4c4.33 0 7.91-3.2 8.58-7.4z"/>
  </symbol>
  <symbol id="twitter-icon">
    <path d="M11.5641 0.168904C12.2458 -0.0461515 12.9837 -0.0560928 13.6719 0.140507C14.3602 0.337107 14.9633 0.730138 15.3947 1.26319C16.1053 1.05385 16.8055 0.815959 17.5263 0.606617C17.5164 0.925848 17.4299 1.23907 17.2732 1.52372C17.1165 1.80837 16.8935 2.05738 16.6201 2.2528C16.8726 2.27877 17.1281 2.25112 17.3673 2.17197C17.6064 2.09281 17.8228 1.96424 18 1.79606C17.901 2.20987 17.6999 2.59695 17.4123 2.92708C17.1247 3.2572 16.7585 3.52144 16.3421 3.69916C16.095 9.96988 12.9748 14.1662 5.65332 13.9949H5.14874C4.70595 13.9949 0.731121 13.5667 0 12.2441C1.75201 12.4899 3.53888 12.0976 4.98398 11.1498C3.95423 10.8643 2.13158 10.7026 1.82265 8.40934C2.2108 8.54337 2.6321 8.57306 3.03776 8.49498C1.76087 7.70519 0.339817 7.0391 0.422197 4.99327C0.819634 5.29882 1.3269 5.45507 1.84325 5.43098C1.10183 5.20261 -0.24714 2.30989 0.895881 0.825474C2.82151 2.54778 4.86041 4.17493 8.48512 4.3367C8.71167 2.20522 9.68993 0.777896 11.5641 0.168904Z" fill="#D22856"/>
  </symbol>
  <symbol id="facebook-icon">
    <path d="M6.50865 3.19324H9V0H6.02076C2.76125 0.171067 1.59862 2.27138 2.07612 5.81626H0V9.15206H2.07612V18H6.02076V9.15206H8.97924V5.81626H6.01038C5.98962 4.81837 5.96886 3.52587 6.50865 3.19324Z" fill="#D22856"/>
  </symbol>
  <symbol id="youtube-icon">
    <path d="M1.83356 12.8089C1.64633 12.9278 1.42471 12.9941 1.19626 12.9996C0.967817 13.0051 0.74263 12.9495 0.548717 12.8398C0.354804 12.7301 0.200724 12.571 0.105646 12.3824C0.010569 12.1938 -0.0213097 11.984 0.0139762 11.779V1.22097C-0.0213097 1.01605 0.010569 0.806234 0.105646 0.617628C0.200724 0.429021 0.354804 0.269949 0.548717 0.1602C0.74263 0.0504516 0.967817 -0.00512927 1.19626 0.000372265C1.42471 0.0058738 1.64633 0.0722149 1.83356 0.191142L14.2333 5.69284C15.2556 6.13817 15.2556 6.86183 14.2333 7.30716L1.83356 12.8089Z" fill="#D22856"/>
  </symbol>
  <symbol id="copyright__icon">
    <path d="M13.64.02L13.5 0 0 1.4v24.61L13.5 34 27 26.01V1.41L13.64 0zm11.6 25L13.5 31.96 1.77 25.02v-10.1l11.68 6.93.02 1.25-8.02-4.75v1.23l8.04 4.8.02 1.3-8.05-4.76v1.22l8.04 4.81 8.12-4.83V16.9l3.62-2.15v10.26zm0-11.57L22 15.33l-1.48.88-7.06-4.19-.01 1.23 6.04 3.57-.06.03-.13.07-.86.5-4.98-2.95-.01 1.22 3.93 2.33-.93.61-.02.01-2.97-1.74-.01 1.23 1.94 1.13-1.98 1.19L1.8 13.58l11.63-6.96 11.8 6.83zm0-1.22L13.43 5.3 1.77 12.22V2.99L13.5 1.76 25.23 3v9.24z"/>
  </symbol>
  <symbol id="photo-editor__crop">
    <path d="M32 28h4V12a4 4 0 00-4-4H16v4h16v16zm-20 4V0H8v8H0v4h8v20a4 4 0 004 4h20v8h4v-8h8v-4H12z"/>
  </symbol>
  <symbol id="photo-editor__fill">
    <g><path d="M33.12 17.88L15.24 0l-2.83 2.83 4.76 4.76L6.88 17.88a3 3 0 000 4.24l11 11a3 3 0 004.24 0l11-11a3 3 0 000-4.24zM10.41 20L20 10.42 29.59 20H10.41zM38 23s-4 4.33-4 7a4 4 0 108 0c0-2.67-4-7-4-7zM48 40H0v3h48v-3z"/></g>
  </symbol>
  <symbol id="photo-editor__contrast">
    <g><path d="M16 4a12 12 0 110 24 12 12 0 010-24zm0-4a16 16 0 100 32 16 16 0 000-32zM16 24.29a8.52 8.52 0 000-17"/></g>
  </symbol>
</svg>

